# xmcd
#
# Track frame offsets:
# 150
# 20310
# 33589
# 48829
# 68577
# 94123
# 115481
# 132503
# 149506
# 168691
#
# Disc length: 2857 seconds
#
# Revision: 1
# Processed by: cddbd v1.5.2PL0 Copyright (c) Steve Scherf et al.
# Submitted via: CedeCatalogueitor 2.6.0.6 http://personales.ya.com/cdcatalogueitor
#
DISCID=8d0b270a
DTITLE=Turistas Espaciales - Telepatia Astral Para Gente Normal
DYEAR=1900
DGENRE=
TTITLE0=Lunatico
TTITLE1=Maquina Cósmica
TTITLE2=La Serpiente En Mi Boca
TTITLE3=Maniqui
TTITLE4=Pastillas Contra El Arrepentimiento
TTITLE5=Mi Meteorito Favorito
TTITLE6=Demasiado Cerca No Interesas
TTITLE7=Mi Mente No Soporta Mis Pasiones
TTITLE8=El Circo Es El Fin De Semana
TTITLE9=Fin De Trasmision
EXTD=
EXTT0=
EXTT1=
EXTT2=
EXTT3=
EXTT4=
EXTT5=
EXTT6=
EXTT7=
EXTT8=
EXTT9=
PLAYORDER=
